<svg width="18" height="11" viewBox="0 0 18 11" fill="none" xmlns="http://www.w3.org/2000/svg">
<path d="M7.498 8.908C7.65667 9.05733 7.736 9.22067 7.736 9.398C7.736 9.57533 7.666 9.72933 7.526 9.86C7.39533 9.99067 7.24133 10.056 7.064 10.056C6.88667 10.056 6.72333 9.98133 6.574 9.832L1.59 5.338V9.342C1.59 9.566 1.52467 9.74333 1.394 9.874C1.27267 10.0047 1.09533 10.07 0.862 10.07C0.647333 10.07 0.474667 10.0047 0.344 9.874C0.213333 9.74333 0.148 9.566 0.148 9.342V0.787999C0.148 0.573333 0.213333 0.400666 0.344 0.269999C0.474667 0.129999 0.647333 0.0599995 0.862 0.0599995C1.086 0.0599995 1.26333 0.125333 1.394 0.255999C1.52467 0.386666 1.59 0.563999 1.59 0.787999V4.624L6.364 0.269999C6.49467 0.139333 6.64867 0.0739993 6.826 0.0739993C7.00333 0.0739993 7.15733 0.139333 7.288 0.269999C7.41867 0.400666 7.484 0.549999 7.484 0.717999C7.484 0.895333 7.40467 1.05867 7.246 1.208L3.074 4.932L7.498 8.908ZM9.84442 10C9.62042 10 9.44309 9.93933 9.31242 9.818C9.19109 9.68733 9.13042 9.51467 9.13042 9.3V0.83C9.13042 0.615333 9.19109 0.447333 9.31242 0.325999C9.44309 0.195333 9.62042 0.129999 9.84442 0.129999H12.5884C14.1844 0.129999 15.4211 0.559333 16.2984 1.418C17.1758 2.27667 17.6144 3.49 17.6144 5.058C17.6144 6.626 17.1758 7.844 16.2984 8.712C15.4211 9.57067 14.1844 10 12.5884 10H9.84442ZM12.5044 8.796C14.9311 8.796 16.1444 7.55 16.1444 5.058C16.1444 2.57533 14.9311 1.334 12.5044 1.334H10.5724V8.796H12.5044Z" fill="#6777EF"/>
</svg>
