<svg width="42" height="42" viewBox="0 0 42 42" fill="none" xmlns="http://www.w3.org/2000/svg">
<rect opacity="0.07" width="42" height="42" rx="6" fill="#6777EF"/>
<path d="M19.498 24.908C19.6567 25.0573 19.736 25.2207 19.736 25.398C19.736 25.5753 19.666 25.7293 19.526 25.86C19.3953 25.9907 19.2413 26.056 19.064 26.056C18.8867 26.056 18.7233 25.9813 18.574 25.832L13.59 21.338V25.342C13.59 25.566 13.5247 25.7433 13.394 25.874C13.2727 26.0047 13.0953 26.07 12.862 26.07C12.6473 26.07 12.4747 26.0047 12.344 25.874C12.2133 25.7433 12.148 25.566 12.148 25.342V16.788C12.148 16.5733 12.2133 16.4007 12.344 16.27C12.4747 16.13 12.6473 16.06 12.862 16.06C13.086 16.06 13.2633 16.1253 13.394 16.256C13.5247 16.3867 13.59 16.564 13.59 16.788V20.624L18.364 16.27C18.4947 16.1393 18.6487 16.074 18.826 16.074C19.0033 16.074 19.1573 16.1393 19.288 16.27C19.4187 16.4007 19.484 16.55 19.484 16.718C19.484 16.8953 19.4047 17.0587 19.246 17.208L15.074 20.932L19.498 24.908ZM21.8444 26C21.6204 26 21.4431 25.9393 21.3124 25.818C21.1911 25.6873 21.1304 25.5147 21.1304 25.3V16.83C21.1304 16.6153 21.1911 16.4473 21.3124 16.326C21.4431 16.1953 21.6204 16.13 21.8444 16.13H24.5884C26.1844 16.13 27.4211 16.5593 28.2984 17.418C29.1758 18.2767 29.6144 19.49 29.6144 21.058C29.6144 22.626 29.1758 23.844 28.2984 24.712C27.4211 25.5707 26.1844 26 24.5884 26H21.8444ZM24.5044 24.796C26.9311 24.796 28.1444 23.55 28.1444 21.058C28.1444 18.5753 26.9311 17.334 24.5044 17.334H22.5724V24.796H24.5044Z" fill="#6777EF"/>
</svg>
