<svg width="42" height="42" viewBox="0 0 42 42" fill="none" xmlns="http://www.w3.org/2000/svg">
<path d="M23.498 24.908C23.6567 25.0573 23.736 25.2207 23.736 25.398C23.736 25.5753 23.666 25.7293 23.526 25.86C23.3953 25.9907 23.2413 26.056 23.064 26.056C22.8867 26.056 22.7233 25.9813 22.574 25.832L17.59 21.338V25.342C17.59 25.566 17.5247 25.7433 17.394 25.874C17.2727 26.0047 17.0953 26.07 16.862 26.07C16.6473 26.07 16.4747 26.0047 16.344 25.874C16.2133 25.7433 16.148 25.566 16.148 25.342V16.788C16.148 16.5733 16.2133 16.4007 16.344 16.27C16.4747 16.13 16.6473 16.06 16.862 16.06C17.086 16.06 17.2633 16.1253 17.394 16.256C17.5247 16.3867 17.59 16.564 17.59 16.788V20.624L22.364 16.27C22.4947 16.1393 22.6487 16.074 22.826 16.074C23.0033 16.074 23.1573 16.1393 23.288 16.27C23.4187 16.4007 23.484 16.55 23.484 16.718C23.484 16.8953 23.4047 17.0587 23.246 17.208L19.074 20.932L23.498 24.908ZM25.8444 26.07C25.6298 26.07 25.4571 26.0047 25.3264 25.874C25.1958 25.7433 25.1304 25.566 25.1304 25.342V16.788C25.1304 16.5733 25.1958 16.4007 25.3264 16.27C25.4571 16.13 25.6298 16.06 25.8444 16.06C26.0684 16.06 26.2458 16.1253 26.3764 16.256C26.5071 16.3867 26.5724 16.564 26.5724 16.788V25.342C26.5724 25.566 26.5071 25.7433 26.3764 25.874C26.2551 26.0047 26.0778 26.07 25.8444 26.07Z" fill="#6777EF"/>
<rect opacity="0.07" width="42" height="42" rx="6" fill="#6777EF"/>
</svg>
