<svg width="42" height="42" viewBox="0 0 42 42" fill="none" xmlns="http://www.w3.org/2000/svg">
<rect opacity="0.07" width="42" height="42" rx="6" fill="#6777EF"/>
<path d="M14.813 13.127L12.563 17.627H22.727L25.5472 13.127H14.813Z" fill="#6777EF"/>
<path d="M29.4375 17.0635L26.9062 13.126L22.4765 20.1249C21.5202 19.7927 20.4798 19.7927 19.5234 20.1249L18.6631 18.751H13.5405L16.5872 23.4932C16.4562 24.1462 16.4718 24.8201 16.6328 25.4664C16.7939 26.1126 17.0963 26.715 17.5184 27.2302C17.9405 27.7454 18.4717 28.1604 19.0736 28.4454C19.6756 28.7304 20.3333 28.8782 20.9993 28.8782C21.6653 28.8782 22.323 28.7304 22.9249 28.4454C23.5269 28.1604 24.058 27.7454 24.4801 27.2302C24.9022 26.715 25.2047 26.1126 25.3657 25.4664C25.5268 24.8201 25.5424 24.1462 25.4114 23.4932L29.4375 17.0635ZM21 26.8369C20.5132 26.8369 20.0375 26.6926 19.6328 26.4222C19.2281 26.1518 18.9126 25.7674 18.7264 25.3177C18.5401 24.8681 18.4914 24.3732 18.5863 23.8959C18.6813 23.4185 18.9157 22.98 19.2598 22.6358C19.604 22.2917 20.0425 22.0573 20.5199 21.9623C20.9972 21.8674 21.4921 21.9161 21.9417 22.1024C22.3914 22.2886 22.7758 22.6041 23.0462 23.0087C23.3166 23.4134 23.4609 23.8892 23.4609 24.376C23.4602 25.0284 23.2007 25.6539 22.7393 26.1153C22.2779 26.5766 21.6524 26.8362 21 26.8369Z" fill="#6777EF"/>
<path d="M21 25.501C21.6213 25.501 22.125 24.9973 22.125 24.376C22.125 23.7547 21.6213 23.251 21 23.251C20.3787 23.251 19.875 23.7547 19.875 24.376C19.875 24.9973 20.3787 25.501 21 25.501Z" fill="#6777EF"/>
</svg>
