<svg width="42" height="42" viewBox="0 0 42 42" fill="none" xmlns="http://www.w3.org/2000/svg">
<rect opacity="0.07" width="42" height="42" rx="6" fill="#6777EF"/>
<path d="M29.4374 18.1875C29.4368 17.591 29.1995 17.019 28.7777 16.5972C28.3559 16.1754 27.7839 15.9382 27.1874 15.9375H25.4999V15.375C25.4994 14.9276 25.3215 14.4986 25.0051 14.1823C24.6888 13.8659 24.2598 13.688 23.8124 13.6875H18.1874C17.74 13.688 17.311 13.8659 16.9947 14.1823C16.6783 14.4986 16.5004 14.9276 16.4999 15.375V15.9375H14.8124C14.2159 15.9382 13.644 16.1754 13.2221 16.5972C12.8003 17.019 12.5631 17.591 12.5624 18.1875V19.875H29.4374V18.1875ZM24.3749 15.9375H17.6249V15.375C17.6249 15.2258 17.6842 15.0827 17.7897 14.9773C17.8951 14.8718 18.0382 14.8125 18.1874 14.8125H23.8124C23.9616 14.8125 24.1047 14.8718 24.2102 14.9773C24.3156 15.0827 24.3749 15.2258 24.3749 15.375V15.9375Z" fill="#6777EF"/>
<path d="M23.8124 21.2812C23.8124 21.505 23.7235 21.7196 23.5653 21.8779C23.407 22.0361 23.1924 22.125 22.9687 22.125H19.0312C18.8074 22.125 18.5928 22.0361 18.4345 21.8779C18.2763 21.7196 18.1874 21.505 18.1874 21.2812V21.1406C18.1874 21.1033 18.1726 21.0676 18.1462 21.0412C18.1198 21.0148 18.0841 21 18.0468 21H12.5624V26.0625C12.5624 26.6592 12.7995 27.2315 13.2214 27.6535C13.6434 28.0754 14.2157 28.3125 14.8124 28.3125H27.1874C27.7841 28.3125 28.3564 28.0754 28.7784 27.6535C29.2004 27.2315 29.4374 26.6592 29.4374 26.0625V21H23.953C23.9157 21 23.88 21.0148 23.8536 21.0412C23.8272 21.0676 23.8124 21.1033 23.8124 21.1406V21.2812Z" fill="#6777EF"/>
</svg>
