<svg width="144" height="62" viewBox="0 0 144 62" fill="none" xmlns="http://www.w3.org/2000/svg">
<path d="M34.2052 35.1603L38.0513 44.4008H48.5641L29.2308 1.07324H19.2821L0 44.4008H10.2564L24.2052 10.9298L31.0769 27.5113" fill="white"/>
<path d="M133.948 22.7883H143.128V40.3965C138.359 43.99 131.795 45.8895 125.641 45.8895C112.051 45.8895 102 36.5463 102 23.4556C102 10.365 112 1.02185 125.846 1.02185C133.436 1.02185 139.743 3.63998 144 8.51688L137.59 14.4719C134.41 11.135 130.769 9.59495 126.41 9.59495C118 9.59495 112.256 15.2419 112.256 23.4556C112.256 31.5667 118 37.3164 126.308 37.3164C129.025 37.3164 131.59 36.803 134.103 35.4683V22.7883H133.948Z" fill="white"/>
<path d="M92.872 38.3431C100.616 27.4085 98.0517 12.2131 87.0771 4.4614C76.1025 -3.29032 60.9743 -0.723525 53.2309 10.2624C45.4873 21.1969 48.0514 36.3924 59.0258 44.1441C66.8204 49.6883 77.1799 50.0991 85.3845 45.2221L99.6907 59.4443C101.639 61.4979 104.819 61.5492 106.87 59.6497C108.921 57.6989 108.973 54.5161 107.075 52.4626C107.024 52.4113 106.973 52.36 106.87 52.2573L92.872 38.3431ZM73.0257 39.9859C64.3589 39.9859 57.3847 32.9529 57.3847 24.3284C57.3847 15.6527 64.4102 8.67094 73.0257 8.67094C81.6413 8.67094 88.6667 15.6527 88.6667 24.3284C88.7179 32.9529 81.6925 39.9859 73.0257 39.9859C73.0769 39.9859 73.0769 39.9859 73.0257 39.9859Z" fill="white"/>
</svg>
