<svg width="236" height="106" viewBox="0 0 236 106" fill="none" xmlns="http://www.w3.org/2000/svg">
<g clip-path="url(#clip0)">
<path d="M56.0984 57.6728L62.4063 72.8276H79.6479L47.9401 1.76807H31.6237L0 72.8276H16.8211L39.6978 17.9333L50.9679 45.1279" fill="#6777EF"/>
<path d="M219.683 37.382H234.738V66.2605C226.916 72.154 216.151 75.2692 206.058 75.2692C183.77 75.2692 167.286 59.9459 167.286 38.4765C167.286 17.0071 183.686 1.68384 206.395 1.68384C218.842 1.68384 229.187 5.97772 236.168 13.9761L225.655 23.7426C220.44 18.27 214.469 15.7442 207.32 15.7442C193.527 15.7442 184.107 25.0055 184.107 38.4765C184.107 51.7791 193.527 61.2089 207.152 61.2089C211.609 61.2089 215.815 60.3669 219.936 58.1779V37.382H219.683Z" fill="#6777EF"/>
<path d="M152.315 62.8928C165.015 44.9595 160.81 20.0382 142.811 7.32492C124.812 -5.38834 100.001 -1.17865 87.3014 16.8388C74.6014 34.7721 78.8067 59.6935 96.8053 72.4067C109.589 81.4996 126.579 82.1732 140.035 74.1748L163.498 97.5C166.694 100.868 171.909 100.952 175.273 97.8368C178.637 94.6374 178.721 89.4174 175.609 86.0496C175.525 85.9654 175.441 85.8813 175.273 85.7129L152.315 62.8928ZM119.766 65.587C105.552 65.587 94.1139 54.0525 94.1139 39.9079C94.1139 25.6792 105.636 14.2288 119.766 14.2288C133.896 14.2288 145.418 25.6792 145.418 39.9079C145.502 54.0525 133.98 65.587 119.766 65.587C119.85 65.587 119.85 65.587 119.766 65.587Z" fill="#6777EF"/>
</g>
<defs>
<clipPath id="clip0">
<rect width="236" height="106" fill="white"/>
</clipPath>
</defs>
</svg>
